<svg viewBox="0 0 694 138" fill="none" xmlns="http://www.w3.org/2000/svg">
<path fill-rule="evenodd" clip-rule="evenodd" d="M507.097 13.0613H494.857V87.1611H507.097V57.4398C507.097 49.297 511.95 44.6148 519.547 44.6148C526.722 44.6148 530.099 49.297 530.099 56.2183V86.9575H542.338V54.997C542.338 42.9863 535.585 34.8434 522.502 34.8434C514.694 34.8434 509.417 38.1004 507.097 41.5612V13.0613ZM247.108 77.7969C237.189 77.7969 232.125 72.7075 231.491 65.1755H219.252C219.674 76.5754 227.06 88.5862 246.475 88.5862C263.778 88.5862 275.386 80.2398 275.386 67.6183C275.386 51.5362 261.88 48.6862 250.485 46.0398C242.044 44.2076 234.446 42.5791 234.446 36.0648C234.446 29.754 239.722 26.2935 248.163 26.2935C257.448 26.2935 262.302 31.7899 262.302 38.7112H274.541C274.12 25.6827 265.256 15.5041 248.163 15.5041C231.914 15.5041 222.206 25.072 222.206 36.2684C222.206 51.9434 235.078 54.7934 246.264 57.0326C255.127 58.8647 262.934 60.4934 262.934 68.0255C262.724 74.3362 257.026 77.7969 247.108 77.7969ZM318.646 65.379C318.646 73.7254 314.004 78.2039 306.407 78.2039C299.021 78.2039 296.067 73.5219 296.067 66.6005V35.8612H283.827V68.229C283.827 80.2398 290.58 88.3826 303.452 88.3826C312.105 88.3826 317.381 84.7183 319.702 80.6469V87.3647H330.887V35.8612H318.646V65.379ZM371.194 88.3826C362.963 88.3826 357.265 84.9218 354.311 80.4433V107.722H342.071V35.8612H353.255V43.1898C356.632 37.897 362.963 34.6399 371.194 34.6399C387.02 34.6399 395.884 46.854 395.884 61.5111C395.884 76.1683 387.02 88.3826 371.194 88.3826ZM368.872 44.8183C359.587 44.8183 353.889 51.9434 353.889 61.5111C353.889 70.6719 359.587 78.0005 368.872 78.0005C378.157 78.0005 383.856 70.8755 383.856 61.5111C383.856 52.147 377.947 44.8183 368.872 44.8183ZM487.682 35.454C488.104 35.454 489.37 35.454 489.37 35.454V46.447C489.37 46.447 487.893 46.2434 486.626 46.2434C477.974 46.2434 472.909 50.5183 472.909 60.4934V87.1611H460.67V35.8612H471.855V42.9863C473.964 39.7291 478.397 35.454 487.682 35.454ZM452.651 64.9719C452.651 64.9719 452.651 63.1398 452.651 61.3076C452.651 46.2434 442.31 34.6399 426.483 34.6399C410.655 34.6399 400.104 46.447 400.104 61.3076C400.104 76.5754 410.445 88.179 426.693 88.179C439.145 88.179 448.43 81.0539 451.596 70.8755H439.355C437.456 75.354 432.602 78.2039 426.906 78.2039C418.464 78.2039 412.977 72.9111 412.133 64.7683H452.651V64.9719ZM426.693 44.2076C434.503 44.2076 439.778 49.0934 440.622 56.2183H412.556C413.821 49.297 418.886 44.2076 426.693 44.2076ZM602.27 61.3076C602.27 63.1398 602.27 64.9719 602.27 64.9719H561.753C562.597 73.1147 568.084 78.4075 576.525 78.4075C582.224 78.4075 586.866 75.5575 588.977 71.079H601.216C598.05 81.2575 588.554 88.3826 576.315 88.3826C560.276 88.3826 549.724 76.779 549.724 61.5111C549.724 46.6504 560.277 34.8434 576.103 34.8434C591.93 34.6399 602.27 46.2434 602.27 61.3076ZM590.031 56.2183C588.977 49.0934 583.912 44.2076 576.103 44.2076C568.295 44.2076 563.02 49.0934 561.965 56.2183H590.031ZM638.567 35.454C638.567 35.454 637.302 35.454 636.879 35.454C627.594 35.454 623.163 39.7291 621.264 42.9863V35.8612H610.08V87.1611H622.319V60.4934C622.319 50.5183 627.383 46.2434 636.035 46.2434C637.302 46.2434 638.78 46.447 638.78 46.447V35.454H638.567ZM693.435 61.5111C693.435 75.9647 682.884 88.179 665.791 88.179C648.909 88.179 638.357 75.7611 638.357 61.5111C638.357 47.0576 648.909 34.6399 665.791 34.6399C682.884 34.6399 693.435 47.0576 693.435 61.5111ZM665.791 45.0219C656.927 45.0219 650.385 51.5362 650.385 61.5111C650.385 71.4862 656.927 78.0005 665.791 78.0005C674.654 78.0005 681.196 71.4862 681.196 61.5111C681.407 51.5362 674.865 45.0219 665.791 45.0219Z" fill="white"/>
<mask id="mask0_113_658" style="mask-type:luminance" maskUnits="userSpaceOnUse" x="0" y="0" width="189" height="138">
<path d="M0 0H188.229V137.344H0V0Z" fill="white"/>
</mask>
<g mask="url(#mask0_113_658)">
<mask id="mask1_113_658" style="mask-type:luminance" maskUnits="userSpaceOnUse" x="0" y="0" width="188" height="136">
<path fill-rule="evenodd" clip-rule="evenodd" d="M3.3584 54.8326C-1.12929 50.6407 -1.07013 43.5331 3.50207 39.4257L44.4237 2.70445C46.3591 0.96346 48.8691 0 51.4806 0H136.502C139.105 0 141.623 0.96346 143.559 2.70445L184.497 39.4511C189.061 43.55 189.137 50.6407 184.666 54.8326L101.471 132.797C97.4224 136.591 91.1007 136.6 87.0441 132.822L3.3584 54.8326ZM50.2721 17.1479C52.2074 15.4069 54.7344 14.435 57.3459 14.435H116.801C119.176 14.435 120.419 17.2408 118.821 18.9818L106.077 32.9097C104.623 34.4986 104.716 36.9495 106.271 38.4285L114.359 46.3981C115.99 48.0124 115.753 50.6999 113.86 51.993L93.9911 65.5913L123.512 60.9852C126.58 60.512 129.69 61.5092 131.896 63.6728L139.519 71.1692C141.141 72.7411 141.125 75.3442 139.477 76.8908L101.2 112.742C97.1519 116.536 90.8218 116.545 86.7652 112.75L25.07 55.0862C20.5908 50.9027 20.6584 43.812 25.2137 39.7046L50.2721 17.1479Z" fill="white"/>
</mask>
<g mask="url(#mask1_113_658)">
<path d="M-1.1322 0V136.6H189.134V0H-1.1322Z" fill="url(#paint0_linear_113_658)"/>
</g>
</g>
<defs>
<linearGradient id="paint0_linear_113_658" x1="172.368" y1="-9.93485" x2="62.9901" y2="174.61" gradientUnits="userSpaceOnUse">
<stop stop-color="#00FF9D"/>
<stop offset="0.125" stop-color="#00FF9D"/>
<stop offset="0.128906" stop-color="#00FE9E"/>
<stop offset="0.132812" stop-color="#00FD9E"/>
<stop offset="0.136719" stop-color="#00FC9F"/>
<stop offset="0.140625" stop-color="#00FBA0"/>
<stop offset="0.144531" stop-color="#01FAA0"/>
<stop offset="0.148438" stop-color="#01F9A1"/>
<stop offset="0.152344" stop-color="#01F8A1"/>
<stop offset="0.15625" stop-color="#01F7A2"/>
<stop offset="0.160156" stop-color="#01F6A3"/>
<stop offset="0.164062" stop-color="#01F5A3"/>
<stop offset="0.167969" stop-color="#01F4A4"/>
<stop offset="0.171875" stop-color="#01F3A5"/>
<stop offset="0.175781" stop-color="#01F2A5"/>
<stop offset="0.179687" stop-color="#02F1A6"/>
<stop offset="0.183594" stop-color="#02F0A6"/>
<stop offset="0.1875" stop-color="#02EFA7"/>
<stop offset="0.191406" stop-color="#02EEA8"/>
<stop offset="0.195312" stop-color="#02EDA8"/>
<stop offset="0.199219" stop-color="#02ECA9"/>
<stop offset="0.203125" stop-color="#02EBA9"/>
<stop offset="0.207031" stop-color="#02EAAA"/>
<stop offset="0.210937" stop-color="#02E9AB"/>
<stop offset="0.214844" stop-color="#03E8AB"/>
<stop offset="0.21875" stop-color="#03E7AC"/>
<stop offset="0.222656" stop-color="#03E6AD"/>
<stop offset="0.226562" stop-color="#03E5AD"/>
<stop offset="0.230469" stop-color="#03E4AE"/>
<stop offset="0.234375" stop-color="#03E3AE"/>
<stop offset="0.238281" stop-color="#03E2AF"/>
<stop offset="0.242187" stop-color="#03E1B0"/>
<stop offset="0.246094" stop-color="#03E0B0"/>
<stop offset="0.25" stop-color="#03DFB1"/>
<stop offset="0.253906" stop-color="#04DEB2"/>
<stop offset="0.257812" stop-color="#04DDB2"/>
<stop offset="0.261719" stop-color="#04DCB3"/>
<stop offset="0.265625" stop-color="#04DBB3"/>
<stop offset="0.269531" stop-color="#04DAB4"/>
<stop offset="0.273438" stop-color="#04D9B5"/>
<stop offset="0.277344" stop-color="#04D8B5"/>
<stop offset="0.28125" stop-color="#04D7B6"/>
<stop offset="0.285156" stop-color="#04D6B6"/>
<stop offset="0.289062" stop-color="#05D5B7"/>
<stop offset="0.292969" stop-color="#05D4B8"/>
<stop offset="0.296875" stop-color="#05D3B8"/>
<stop offset="0.300781" stop-color="#05D1B9"/>
<stop offset="0.304688" stop-color="#05D0BA"/>
<stop offset="0.308594" stop-color="#05CFBA"/>
<stop offset="0.3125" stop-color="#05CEBB"/>
<stop offset="0.316406" stop-color="#05CDBB"/>
<stop offset="0.320312" stop-color="#05CCBC"/>
<stop offset="0.324219" stop-color="#06CBBD"/>
<stop offset="0.328125" stop-color="#06CABD"/>
<stop offset="0.332031" stop-color="#06C9BE"/>
<stop offset="0.335938" stop-color="#06C8BF"/>
<stop offset="0.339844" stop-color="#06C7BF"/>
<stop offset="0.34375" stop-color="#06C6C0"/>
<stop offset="0.347656" stop-color="#06C5C0"/>
<stop offset="0.351562" stop-color="#06C4C1"/>
<stop offset="0.355469" stop-color="#06C3C2"/>
<stop offset="0.359375" stop-color="#07C2C2"/>
<stop offset="0.363281" stop-color="#07C1C3"/>
<stop offset="0.367188" stop-color="#07C0C4"/>
<stop offset="0.371094" stop-color="#07BFC4"/>
<stop offset="0.375" stop-color="#07BEC5"/>
<stop offset="0.378906" stop-color="#07BDC5"/>
<stop offset="0.382812" stop-color="#07BCC6"/>
<stop offset="0.386719" stop-color="#07BBC7"/>
<stop offset="0.390625" stop-color="#07BAC7"/>
<stop offset="0.394531" stop-color="#08B9C8"/>
<stop offset="0.398438" stop-color="#08B8C8"/>
<stop offset="0.402344" stop-color="#08B7C9"/>
<stop offset="0.40625" stop-color="#08B6CA"/>
<stop offset="0.410156" stop-color="#08B5CA"/>
<stop offset="0.414062" stop-color="#08B4CB"/>
<stop offset="0.417969" stop-color="#08B3CC"/>
<stop offset="0.421875" stop-color="#08B2CC"/>
<stop offset="0.425781" stop-color="#08B1CD"/>
<stop offset="0.429688" stop-color="#09B0CD"/>
<stop offset="0.433594" stop-color="#09AFCE"/>
<stop offset="0.4375" stop-color="#09AECF"/>
<stop offset="0.441406" stop-color="#09ADCF"/>
<stop offset="0.445312" stop-color="#09ACD0"/>
<stop offset="0.449219" stop-color="#09ABD1"/>
<stop offset="0.453125" stop-color="#09AAD1"/>
<stop offset="0.457031" stop-color="#09A9D2"/>
<stop offset="0.460937" stop-color="#09A8D2"/>
<stop offset="0.464844" stop-color="#0AA7D3"/>
<stop offset="0.46875" stop-color="#0AA6D4"/>
<stop offset="0.472656" stop-color="#0AA5D4"/>
<stop offset="0.476562" stop-color="#0AA4D5"/>
<stop offset="0.480469" stop-color="#0AA3D5"/>
<stop offset="0.484375" stop-color="#0AA2D6"/>
<stop offset="0.488281" stop-color="#0AA1D7"/>
<stop offset="0.492187" stop-color="#0AA0D7"/>
<stop offset="0.496094" stop-color="#0A9FD8"/>
<stop offset="0.5" stop-color="#0A9ED9"/>
<stop offset="0.503906" stop-color="#0B9DD9"/>
<stop offset="0.507812" stop-color="#0B9CDA"/>
<stop offset="0.511719" stop-color="#0B9BDA"/>
<stop offset="0.515625" stop-color="#0B9ADB"/>
<stop offset="0.519531" stop-color="#0B99DC"/>
<stop offset="0.523437" stop-color="#0B98DC"/>
<stop offset="0.527344" stop-color="#0B97DD"/>
<stop offset="0.53125" stop-color="#0B96DE"/>
<stop offset="0.535156" stop-color="#0B95DE"/>
<stop offset="0.539062" stop-color="#0C94DF"/>
<stop offset="0.542969" stop-color="#0C93DF"/>
<stop offset="0.546875" stop-color="#0C92E0"/>
<stop offset="0.550781" stop-color="#0C91E1"/>
<stop offset="0.554687" stop-color="#0C90E1"/>
<stop offset="0.558594" stop-color="#0C8FE2"/>
<stop offset="0.5625" stop-color="#0C8EE2"/>
<stop offset="0.566406" stop-color="#0C8DE3"/>
<stop offset="0.570312" stop-color="#0C8CE4"/>
<stop offset="0.574219" stop-color="#0D8BE4"/>
<stop offset="0.578125" stop-color="#0D8AE5"/>
<stop offset="0.582031" stop-color="#0D89E6"/>
<stop offset="0.585937" stop-color="#0D88E6"/>
<stop offset="0.589844" stop-color="#0D87E7"/>
<stop offset="0.59375" stop-color="#0D86E7"/>
<stop offset="0.597656" stop-color="#0D85E8"/>
<stop offset="0.601562" stop-color="#0D84E9"/>
<stop offset="0.605469" stop-color="#0D83E9"/>
<stop offset="0.609375" stop-color="#0E82EA"/>
<stop offset="0.613281" stop-color="#0E81EB"/>
<stop offset="0.617187" stop-color="#0E80EB"/>
<stop offset="0.621094" stop-color="#0E7FEC"/>
<stop offset="0.625" stop-color="#0E7EEC"/>
<stop offset="0.628906" stop-color="#0E7DED"/>
<stop offset="0.632812" stop-color="#0E7CEE"/>
<stop offset="0.636719" stop-color="#0E7BEE"/>
<stop offset="0.640625" stop-color="#0E7AEF"/>
<stop offset="0.644531" stop-color="#0F79F0"/>
<stop offset="0.648437" stop-color="#0F77F0"/>
<stop offset="0.652344" stop-color="#0F76F1"/>
<stop offset="0.65625" stop-color="#0F75F1"/>
<stop offset="0.660156" stop-color="#0F74F2"/>
<stop offset="0.664062" stop-color="#0F73F3"/>
<stop offset="0.667969" stop-color="#0F72F3"/>
<stop offset="0.671875" stop-color="#0F71F4"/>
<stop offset="0.675781" stop-color="#0F70F4"/>
<stop offset="0.679687" stop-color="#106FF5"/>
<stop offset="0.683594" stop-color="#106EF6"/>
<stop offset="0.6875" stop-color="#106DF6"/>
<stop offset="0.691406" stop-color="#106CF7"/>
<stop offset="0.695312" stop-color="#106BF8"/>
<stop offset="0.699219" stop-color="#106AF8"/>
<stop offset="0.703125" stop-color="#1069F9"/>
<stop offset="0.707031" stop-color="#1068F9"/>
<stop offset="0.710937" stop-color="#1067FA"/>
<stop offset="0.714844" stop-color="#1066FB"/>
<stop offset="0.71875" stop-color="#1165FB"/>
<stop offset="0.722656" stop-color="#1164FC"/>
<stop offset="0.726562" stop-color="#1163FD"/>
<stop offset="0.730469" stop-color="#1162FD"/>
<stop offset="0.734375" stop-color="#1161FE"/>
<stop offset="0.75" stop-color="#1161FE"/>
<stop offset="1" stop-color="#1161FE"/>
</linearGradient>
</defs>
</svg>
