<svg viewBox="0 0 694 138" fill="none" xmlns="http://www.w3.org/2000/svg">
<path fill-rule="evenodd" clip-rule="evenodd" d="M507.097 13.0615H494.856V87.1613H507.097V57.4401C507.097 49.2972 511.949 44.615 519.546 44.615C526.722 44.615 530.098 49.2972 530.098 56.2186V86.9578H542.337V54.9972C542.337 42.9865 535.585 34.8437 522.501 34.8437C514.694 34.8437 509.417 38.1007 507.097 41.5614V13.0615ZM247.108 77.7972C237.189 77.7972 232.124 72.7078 231.491 65.1757H219.252C219.673 76.5757 227.06 88.5864 246.474 88.5864C263.778 88.5864 275.385 80.24 275.385 67.6185C275.385 51.5365 261.879 48.6865 250.484 46.0401C242.043 44.2078 234.446 42.5793 234.446 36.065C234.446 29.7543 239.721 26.2937 248.163 26.2937C257.448 26.2937 262.302 31.7901 262.302 38.7114H274.541C274.12 25.683 265.256 15.5044 248.163 15.5044C231.914 15.5044 222.206 25.0722 222.206 36.2686C222.206 51.9436 235.078 54.7936 246.264 57.0329C255.126 58.865 262.934 60.4936 262.934 68.0257C262.723 74.3364 257.025 77.7972 247.108 77.7972ZM318.646 65.3793C318.646 73.7257 314.004 78.2042 306.407 78.2042C299.02 78.2042 296.067 73.5221 296.067 66.6008V35.8614H283.826V68.2293C283.826 80.24 290.579 88.3828 303.452 88.3828C312.105 88.3828 317.38 84.7185 319.702 80.6472V87.3649H330.886V35.8614H318.646V65.3793ZM371.193 88.3828C362.963 88.3828 357.265 84.9221 354.311 80.4436V107.722H342.071V35.8614H353.255V43.1901C356.631 37.8973 362.963 34.6401 371.193 34.6401C387.02 34.6401 395.884 46.8543 395.884 61.5114C395.884 76.1685 387.02 88.3828 371.193 88.3828ZM368.872 44.8186C359.586 44.8186 353.888 51.9437 353.888 61.5114C353.888 70.6721 359.586 78.0008 368.872 78.0008C378.157 78.0008 383.855 70.8757 383.855 61.5114C383.855 52.1472 377.946 44.8186 368.872 44.8186ZM487.682 35.4543C488.103 35.4543 489.37 35.4543 489.37 35.4543V46.4472C489.37 46.4472 487.893 46.2437 486.626 46.2437C477.974 46.2437 472.909 50.5186 472.909 60.4936V87.1613H460.67V35.8614H471.854V42.9865C473.964 39.7293 478.397 35.4543 487.682 35.4543ZM452.65 64.9721C452.65 64.9721 452.65 63.14 452.65 61.3078C452.65 46.2437 442.31 34.6401 426.482 34.6401C410.655 34.6401 400.104 46.4472 400.104 61.3078C400.104 76.5757 410.444 88.1792 426.693 88.1792C439.144 88.1792 448.43 81.0542 451.595 70.8757H439.355C437.456 75.3542 432.602 78.2042 426.905 78.2042C418.464 78.2042 412.977 72.9114 412.132 64.7685H452.65V64.9721ZM426.693 44.2078C434.502 44.2078 439.778 49.0937 440.622 56.2186H412.555C413.821 49.2972 418.885 44.2078 426.693 44.2078ZM602.27 61.3078C602.27 63.14 602.27 64.9721 602.27 64.9721H561.752C562.596 73.1149 568.084 78.4078 576.525 78.4078C582.223 78.4078 586.865 75.5578 588.976 71.0793H601.215C598.049 81.2578 588.553 88.3828 576.314 88.3828C560.276 88.3828 549.724 76.7793 549.724 61.5114C549.724 46.6507 560.276 34.8437 576.102 34.8437C591.93 34.6401 602.27 46.2437 602.27 61.3078ZM590.031 56.2186C588.976 49.0937 583.911 44.2078 576.102 44.2078C568.295 44.2078 563.019 49.0937 561.964 56.2186H590.031ZM638.567 35.4543C638.567 35.4543 637.302 35.4543 636.879 35.4543C627.594 35.4543 623.162 39.7293 621.263 42.9865V35.8614H610.079V87.1613H622.318V60.4936C622.318 50.5186 627.383 46.2437 636.035 46.2437C637.302 46.2437 638.779 46.4472 638.779 46.4472V35.4543H638.567ZM693.435 61.5114C693.435 75.9649 682.884 88.1792 665.791 88.1792C648.909 88.1792 638.356 75.7614 638.356 61.5114C638.356 47.0578 648.909 34.6401 665.791 34.6401C682.884 34.6401 693.435 47.0578 693.435 61.5114ZM665.791 45.0222C656.927 45.0222 650.385 51.5365 650.385 61.5114C650.385 71.4864 656.927 78.0008 665.791 78.0008C674.654 78.0008 681.196 71.4864 681.196 61.5114C681.406 51.5365 674.864 45.0222 665.791 45.0222Z" fill="black"/>
<mask id="mask0_152_1660" style="mask-type:luminance" maskUnits="userSpaceOnUse" x="0" y="0" width="189" height="138">
<path d="M0 0H188.229V137.344H0V0Z" fill="white"/>
</mask>
<g mask="url(#mask0_152_1660)">
<mask id="mask1_152_1660" style="mask-type:luminance" maskUnits="userSpaceOnUse" x="0" y="0" width="188" height="136">
<path fill-rule="evenodd" clip-rule="evenodd" d="M3.35828 54.8326C-1.12941 50.6407 -1.07025 43.5331 3.50195 39.4257L44.4236 2.70445C46.359 0.96346 48.869 0 51.4805 0H136.501C139.105 0 141.623 0.96346 143.558 2.70445L184.497 39.4511C189.061 43.55 189.137 50.6407 184.666 54.8326L101.47 132.797C97.4223 136.591 91.1006 136.6 87.044 132.822L3.35828 54.8326ZM50.2719 17.1479C52.2073 15.4069 54.7343 14.435 57.3458 14.435H116.801C119.176 14.435 120.418 17.2408 118.821 18.9818L106.076 32.9097C104.623 34.4986 104.716 36.9495 106.271 38.4285L114.359 46.3981C115.99 48.0124 115.753 50.6999 113.86 51.993L93.991 65.5913L123.512 60.9852C126.58 60.512 129.69 61.5092 131.895 63.6728L139.519 71.1692C141.141 72.7411 141.124 75.3442 139.476 76.8908L101.2 112.742C97.1518 116.536 90.8217 116.545 86.7651 112.75L25.0699 55.0862C20.5907 50.9027 20.6583 43.812 25.2136 39.7046L50.2719 17.1479Z" fill="white"/>
</mask>
<g mask="url(#mask1_152_1660)">
<path d="M-1.13281 0V136.6H189.133V0H-1.13281Z" fill="url(#paint0_linear_152_1660)"/>
</g>
</g>
<defs>
<linearGradient id="paint0_linear_152_1660" x1="172.368" y1="-9.93485" x2="62.9895" y2="174.61" gradientUnits="userSpaceOnUse">
<stop stop-color="#00FF9D"/>
<stop offset="0.125" stop-color="#00FF9D"/>
<stop offset="0.128906" stop-color="#00FE9E"/>
<stop offset="0.132812" stop-color="#00FD9E"/>
<stop offset="0.136719" stop-color="#00FC9F"/>
<stop offset="0.140625" stop-color="#00FBA0"/>
<stop offset="0.144531" stop-color="#01FAA0"/>
<stop offset="0.148438" stop-color="#01F9A1"/>
<stop offset="0.152344" stop-color="#01F8A1"/>
<stop offset="0.15625" stop-color="#01F7A2"/>
<stop offset="0.160156" stop-color="#01F6A3"/>
<stop offset="0.164062" stop-color="#01F5A3"/>
<stop offset="0.167969" stop-color="#01F4A4"/>
<stop offset="0.171875" stop-color="#01F3A5"/>
<stop offset="0.175781" stop-color="#01F2A5"/>
<stop offset="0.179687" stop-color="#02F1A6"/>
<stop offset="0.183594" stop-color="#02F0A6"/>
<stop offset="0.1875" stop-color="#02EFA7"/>
<stop offset="0.191406" stop-color="#02EEA8"/>
<stop offset="0.195312" stop-color="#02EDA8"/>
<stop offset="0.199219" stop-color="#02ECA9"/>
<stop offset="0.203125" stop-color="#02EBA9"/>
<stop offset="0.207031" stop-color="#02EAAA"/>
<stop offset="0.210937" stop-color="#02E9AB"/>
<stop offset="0.214844" stop-color="#03E8AB"/>
<stop offset="0.21875" stop-color="#03E7AC"/>
<stop offset="0.222656" stop-color="#03E6AD"/>
<stop offset="0.226562" stop-color="#03E5AD"/>
<stop offset="0.230469" stop-color="#03E4AE"/>
<stop offset="0.234375" stop-color="#03E3AE"/>
<stop offset="0.238281" stop-color="#03E2AF"/>
<stop offset="0.242187" stop-color="#03E1B0"/>
<stop offset="0.246094" stop-color="#03E0B0"/>
<stop offset="0.25" stop-color="#03DFB1"/>
<stop offset="0.253906" stop-color="#04DEB2"/>
<stop offset="0.257812" stop-color="#04DDB2"/>
<stop offset="0.261719" stop-color="#04DCB3"/>
<stop offset="0.265625" stop-color="#04DBB3"/>
<stop offset="0.269531" stop-color="#04DAB4"/>
<stop offset="0.273438" stop-color="#04D9B5"/>
<stop offset="0.277344" stop-color="#04D8B5"/>
<stop offset="0.28125" stop-color="#04D7B6"/>
<stop offset="0.285156" stop-color="#04D6B6"/>
<stop offset="0.289062" stop-color="#05D5B7"/>
<stop offset="0.292969" stop-color="#05D4B8"/>
<stop offset="0.296875" stop-color="#05D3B8"/>
<stop offset="0.300781" stop-color="#05D1B9"/>
<stop offset="0.304688" stop-color="#05D0BA"/>
<stop offset="0.308594" stop-color="#05CFBA"/>
<stop offset="0.3125" stop-color="#05CEBB"/>
<stop offset="0.316406" stop-color="#05CDBB"/>
<stop offset="0.320312" stop-color="#05CCBC"/>
<stop offset="0.324219" stop-color="#06CBBD"/>
<stop offset="0.328125" stop-color="#06CABD"/>
<stop offset="0.332031" stop-color="#06C9BE"/>
<stop offset="0.335938" stop-color="#06C8BF"/>
<stop offset="0.339844" stop-color="#06C7BF"/>
<stop offset="0.34375" stop-color="#06C6C0"/>
<stop offset="0.347656" stop-color="#06C5C0"/>
<stop offset="0.351562" stop-color="#06C4C1"/>
<stop offset="0.355469" stop-color="#06C3C2"/>
<stop offset="0.359375" stop-color="#07C2C2"/>
<stop offset="0.363281" stop-color="#07C1C3"/>
<stop offset="0.367188" stop-color="#07C0C4"/>
<stop offset="0.371094" stop-color="#07BFC4"/>
<stop offset="0.375" stop-color="#07BEC5"/>
<stop offset="0.378906" stop-color="#07BDC5"/>
<stop offset="0.382812" stop-color="#07BCC6"/>
<stop offset="0.386719" stop-color="#07BBC7"/>
<stop offset="0.390625" stop-color="#07BAC7"/>
<stop offset="0.394531" stop-color="#08B9C8"/>
<stop offset="0.398438" stop-color="#08B8C8"/>
<stop offset="0.402344" stop-color="#08B7C9"/>
<stop offset="0.40625" stop-color="#08B6CA"/>
<stop offset="0.410156" stop-color="#08B5CA"/>
<stop offset="0.414062" stop-color="#08B4CB"/>
<stop offset="0.417969" stop-color="#08B3CC"/>
<stop offset="0.421875" stop-color="#08B2CC"/>
<stop offset="0.425781" stop-color="#08B1CD"/>
<stop offset="0.429688" stop-color="#09B0CD"/>
<stop offset="0.433594" stop-color="#09AFCE"/>
<stop offset="0.4375" stop-color="#09AECF"/>
<stop offset="0.441406" stop-color="#09ADCF"/>
<stop offset="0.445312" stop-color="#09ACD0"/>
<stop offset="0.449219" stop-color="#09ABD1"/>
<stop offset="0.453125" stop-color="#09AAD1"/>
<stop offset="0.457031" stop-color="#09A9D2"/>
<stop offset="0.460937" stop-color="#09A8D2"/>
<stop offset="0.464844" stop-color="#0AA7D3"/>
<stop offset="0.46875" stop-color="#0AA6D4"/>
<stop offset="0.472656" stop-color="#0AA5D4"/>
<stop offset="0.476562" stop-color="#0AA4D5"/>
<stop offset="0.480469" stop-color="#0AA3D5"/>
<stop offset="0.484375" stop-color="#0AA2D6"/>
<stop offset="0.488281" stop-color="#0AA1D7"/>
<stop offset="0.492187" stop-color="#0AA0D7"/>
<stop offset="0.496094" stop-color="#0A9FD8"/>
<stop offset="0.5" stop-color="#0A9ED9"/>
<stop offset="0.503906" stop-color="#0B9DD9"/>
<stop offset="0.507812" stop-color="#0B9CDA"/>
<stop offset="0.511719" stop-color="#0B9BDA"/>
<stop offset="0.515625" stop-color="#0B9ADB"/>
<stop offset="0.519531" stop-color="#0B99DC"/>
<stop offset="0.523437" stop-color="#0B98DC"/>
<stop offset="0.527344" stop-color="#0B97DD"/>
<stop offset="0.53125" stop-color="#0B96DE"/>
<stop offset="0.535156" stop-color="#0B95DE"/>
<stop offset="0.539062" stop-color="#0C94DF"/>
<stop offset="0.542969" stop-color="#0C93DF"/>
<stop offset="0.546875" stop-color="#0C92E0"/>
<stop offset="0.550781" stop-color="#0C91E1"/>
<stop offset="0.554687" stop-color="#0C90E1"/>
<stop offset="0.558594" stop-color="#0C8FE2"/>
<stop offset="0.5625" stop-color="#0C8EE2"/>
<stop offset="0.566406" stop-color="#0C8DE3"/>
<stop offset="0.570312" stop-color="#0C8CE4"/>
<stop offset="0.574219" stop-color="#0D8BE4"/>
<stop offset="0.578125" stop-color="#0D8AE5"/>
<stop offset="0.582031" stop-color="#0D89E6"/>
<stop offset="0.585937" stop-color="#0D88E6"/>
<stop offset="0.589844" stop-color="#0D87E7"/>
<stop offset="0.59375" stop-color="#0D86E7"/>
<stop offset="0.597656" stop-color="#0D85E8"/>
<stop offset="0.601562" stop-color="#0D84E9"/>
<stop offset="0.605469" stop-color="#0D83E9"/>
<stop offset="0.609375" stop-color="#0E82EA"/>
<stop offset="0.613281" stop-color="#0E81EB"/>
<stop offset="0.617187" stop-color="#0E80EB"/>
<stop offset="0.621094" stop-color="#0E7FEC"/>
<stop offset="0.625" stop-color="#0E7EEC"/>
<stop offset="0.628906" stop-color="#0E7DED"/>
<stop offset="0.632812" stop-color="#0E7CEE"/>
<stop offset="0.636719" stop-color="#0E7BEE"/>
<stop offset="0.640625" stop-color="#0E7AEF"/>
<stop offset="0.644531" stop-color="#0F79F0"/>
<stop offset="0.648437" stop-color="#0F77F0"/>
<stop offset="0.652344" stop-color="#0F76F1"/>
<stop offset="0.65625" stop-color="#0F75F1"/>
<stop offset="0.660156" stop-color="#0F74F2"/>
<stop offset="0.664062" stop-color="#0F73F3"/>
<stop offset="0.667969" stop-color="#0F72F3"/>
<stop offset="0.671875" stop-color="#0F71F4"/>
<stop offset="0.675781" stop-color="#0F70F4"/>
<stop offset="0.679687" stop-color="#106FF5"/>
<stop offset="0.683594" stop-color="#106EF6"/>
<stop offset="0.6875" stop-color="#106DF6"/>
<stop offset="0.691406" stop-color="#106CF7"/>
<stop offset="0.695312" stop-color="#106BF8"/>
<stop offset="0.699219" stop-color="#106AF8"/>
<stop offset="0.703125" stop-color="#1069F9"/>
<stop offset="0.707031" stop-color="#1068F9"/>
<stop offset="0.710937" stop-color="#1067FA"/>
<stop offset="0.714844" stop-color="#1066FB"/>
<stop offset="0.71875" stop-color="#1165FB"/>
<stop offset="0.722656" stop-color="#1164FC"/>
<stop offset="0.726562" stop-color="#1163FD"/>
<stop offset="0.730469" stop-color="#1162FD"/>
<stop offset="0.734375" stop-color="#1161FE"/>
<stop offset="0.75" stop-color="#1161FE"/>
<stop offset="1" stop-color="#1161FE"/>
</linearGradient>
</defs>
</svg>
