<svg width="700" height="142" viewBox="0 0 700 142" fill="none" xmlns="http://www.w3.org/2000/svg">
<g filter="url(#filter0_di_160_2052)">
<path fill-rule="evenodd" clip-rule="evenodd" d="M509.032 15.3828H496.793V89.4696H509.032V59.7536C509.032 51.6122 513.883 46.9308 521.479 46.9308C528.653 46.9308 532.029 51.6122 532.029 58.5323V89.2661H544.266V57.3112C544.266 45.3026 537.514 37.1612 524.434 37.1612C516.627 37.1612 511.351 40.4176 509.032 43.8777V15.3828ZM249.088 80.1071C239.171 80.1071 234.107 75.0186 233.474 67.4879H221.237C221.659 78.8858 229.044 90.8945 248.455 90.8945C265.756 90.8945 277.361 82.5495 277.361 69.9303C277.361 53.851 263.857 51.0015 252.464 48.3556C244.025 46.5237 236.429 44.8955 236.429 38.3823C236.429 32.0727 241.703 28.6127 250.143 28.6127C259.427 28.6127 264.28 34.1081 264.28 41.0282H276.517C276.095 28.002 267.233 17.8252 250.143 17.8252C233.897 17.8252 224.19 27.3914 224.19 38.5858C224.19 54.2581 237.061 57.1076 248.244 59.3465C257.105 61.1782 264.912 62.8066 264.912 70.3374C264.701 76.647 259.004 80.1071 249.088 80.1071ZM320.614 67.6914C320.614 76.0363 315.973 80.5141 308.377 80.5141C300.992 80.5141 298.039 75.8328 298.039 68.9127V38.1787H285.8V70.5409C285.8 82.5495 292.552 90.6909 305.422 90.6909C314.074 90.6909 319.349 87.0272 321.67 82.9566V89.6732H332.852V38.1787H320.614V67.6914ZM373.152 90.6909C364.923 90.6909 359.226 87.2308 356.273 82.7531V110.027H344.034V38.1787H355.217V45.5061C358.593 40.2142 364.923 36.9576 373.152 36.9576C388.975 36.9576 397.838 49.1696 397.838 63.8242C397.838 78.4788 388.975 90.6909 373.152 90.6909ZM370.831 47.1343C361.547 47.1343 355.85 54.2581 355.85 63.8242C355.85 72.9833 361.547 80.3107 370.831 80.3107C380.115 80.3107 385.812 73.1869 385.812 63.8242C385.812 54.4617 379.904 47.1343 370.831 47.1343ZM489.62 37.7716C490.041 37.7716 491.308 37.7716 491.308 37.7716V48.7627C491.308 48.7627 489.831 48.5591 488.564 48.5591C479.914 48.5591 474.85 52.8333 474.85 62.8066V89.4696H462.613V38.1787H473.795V45.3025C475.905 42.046 480.337 37.7716 489.62 37.7716ZM454.595 67.2843C454.595 67.2843 454.595 65.4526 454.595 63.6206C454.595 48.5591 444.256 36.9576 428.432 36.9576C412.607 36.9576 402.058 48.7627 402.058 63.6206C402.058 78.8858 412.396 90.4874 428.642 90.4874C441.091 90.4874 450.375 83.3636 453.54 73.1869H441.302C439.403 77.6646 434.55 80.5141 428.854 80.5141C420.415 80.5141 414.928 75.2222 414.084 67.0808H454.595V67.2843ZM428.642 46.5237C436.45 46.5237 441.724 51.4086 442.568 58.5323H414.507C415.772 51.6122 420.836 46.5237 428.642 46.5237ZM604.188 63.6206C604.188 65.4526 604.188 67.2843 604.188 67.2843H563.678C564.521 75.4257 570.008 80.7176 578.448 80.7176C584.145 80.7176 588.786 77.8681 590.897 73.3904H603.134C599.968 83.5671 590.474 90.6909 578.237 90.6909C562.202 90.6909 551.651 79.0894 551.651 63.8242C551.651 48.9661 562.202 37.1612 578.025 37.1612C593.85 36.9576 604.188 48.5591 604.188 63.6206ZM591.951 58.5323C590.897 51.4086 585.833 46.5237 578.025 46.5237C570.219 46.5237 564.944 51.4086 563.89 58.5323H591.951ZM640.479 37.7716C640.479 37.7716 639.214 37.7716 638.791 37.7716C629.507 37.7716 625.077 42.046 623.178 45.3025V38.1787H611.996V89.4696H624.233V62.8066C624.233 52.8333 629.297 48.5591 637.947 48.5591C639.214 48.5591 640.691 48.7627 640.691 48.7627V37.7716H640.479ZM695.337 63.8242C695.337 78.2752 684.788 90.4874 667.698 90.4874C650.819 90.4874 640.268 78.0717 640.268 63.8242C640.268 49.3732 650.819 36.9576 667.698 36.9576C684.788 36.9576 695.337 49.3732 695.337 63.8242ZM667.698 47.3379C658.836 47.3379 652.295 53.851 652.295 63.8242C652.295 73.7975 658.836 80.3107 667.698 80.3107C676.559 80.3107 683.1 73.7975 683.1 63.8242C683.311 53.851 676.77 47.3379 667.698 47.3379Z" fill="url(#paint0_linear_160_2052)"/>
<mask id="mask0_160_2052" style="mask-type:luminance" maskUnits="userSpaceOnUse" x="2" y="2" width="189" height="138">
<path d="M2 2H190.229V139.344H2V2Z" fill="white"/>
</mask>
<g mask="url(#mask0_160_2052)">
<mask id="mask1_160_2052" style="mask-type:luminance" maskUnits="userSpaceOnUse" x="2" y="2" width="188" height="136">
<path fill-rule="evenodd" clip-rule="evenodd" d="M5.35828 56.8326C0.870586 52.6407 0.929745 45.5331 5.50195 41.4257L46.4236 4.70445C48.359 2.96346 50.869 2 53.4805 2H138.501C141.105 2 143.623 2.96346 145.558 4.70445L186.497 41.4511C191.061 45.55 191.137 52.6407 186.666 56.8326L103.47 134.797C99.4223 138.591 93.1006 138.6 89.044 134.822L5.35828 56.8326ZM52.2719 19.1479C54.2073 17.4069 56.7343 16.435 59.3458 16.435H118.801C121.176 16.435 122.418 19.2408 120.821 20.9818L108.076 34.9097C106.623 36.4986 106.716 38.9495 108.271 40.4285L116.359 48.3981C117.99 50.0124 117.753 52.6999 115.86 53.993L95.991 67.5913L125.512 62.9852C128.58 62.512 131.69 63.5092 133.895 65.6728L141.519 73.1692C143.141 74.7411 143.124 77.3442 141.476 78.8908L103.2 114.742C99.1518 118.536 92.8217 118.545 88.7651 114.75L27.0699 57.0862C22.5907 52.9027 22.6583 45.812 27.2136 41.7046L52.2719 19.1479Z" fill="white"/>
</mask>
<g mask="url(#mask1_160_2052)">
<path d="M0.867676 2V138.6H191.134V2H0.867676Z" fill="url(#paint1_linear_160_2052)"/>
</g>
</g>
</g>
<defs>
<filter id="filter0_di_160_2052" x="0.0322266" y="0" width="699.305" height="141.649" filterUnits="userSpaceOnUse" color-interpolation-filters="sRGB">
<feFlood flood-opacity="0" result="BackgroundImageFix"/>
<feColorMatrix in="SourceAlpha" type="matrix" values="0 0 0 0 0 0 0 0 0 0 0 0 0 0 0 0 0 0 127 0" result="hardAlpha"/>
<feOffset dx="1" dy="1"/>
<feGaussianBlur stdDeviation="1.5"/>
<feComposite in2="hardAlpha" operator="out"/>
<feColorMatrix type="matrix" values="0 0 0 0 0 0 0 0 0 0 0 0 0 0 0 0 0 0 1 0"/>
<feBlend mode="normal" in2="BackgroundImageFix" result="effect1_dropShadow_160_2052"/>
<feBlend mode="normal" in="SourceGraphic" in2="effect1_dropShadow_160_2052" result="shape"/>
<feColorMatrix in="SourceAlpha" type="matrix" values="0 0 0 0 0 0 0 0 0 0 0 0 0 0 0 0 0 0 127 0" result="hardAlpha"/>
<feOffset dx="1" dy="1"/>
<feGaussianBlur stdDeviation="1.5"/>
<feComposite in2="hardAlpha" operator="arithmetic" k2="-1" k3="1"/>
<feColorMatrix type="matrix" values="0 0 0 0 0 0 0 0 0 0 0 0 0 0 0 0 0 0 0.25 0"/>
<feBlend mode="normal" in2="shape" result="effect2_innerShadow_160_2052"/>
</filter>
<linearGradient id="paint0_linear_160_2052" x1="203.5" y1="5.00005" x2="718.5" y2="124.5" gradientUnits="userSpaceOnUse">
<stop stop-color="#00FF9D"/>
<stop offset="1" stop-color="#1161FE"/>
</linearGradient>
<linearGradient id="paint1_linear_160_2052" x1="174.368" y1="-7.93485" x2="64.99" y2="176.61" gradientUnits="userSpaceOnUse">
<stop stop-color="#00FF9D"/>
<stop offset="0.125" stop-color="#00FF9D"/>
<stop offset="0.128906" stop-color="#00FE9E"/>
<stop offset="0.132812" stop-color="#00FD9E"/>
<stop offset="0.136719" stop-color="#00FC9F"/>
<stop offset="0.140625" stop-color="#00FBA0"/>
<stop offset="0.144531" stop-color="#01FAA0"/>
<stop offset="0.148438" stop-color="#01F9A1"/>
<stop offset="0.152344" stop-color="#01F8A1"/>
<stop offset="0.15625" stop-color="#01F7A2"/>
<stop offset="0.160156" stop-color="#01F6A3"/>
<stop offset="0.164062" stop-color="#01F5A3"/>
<stop offset="0.167969" stop-color="#01F4A4"/>
<stop offset="0.171875" stop-color="#01F3A5"/>
<stop offset="0.175781" stop-color="#01F2A5"/>
<stop offset="0.179687" stop-color="#02F1A6"/>
<stop offset="0.183594" stop-color="#02F0A6"/>
<stop offset="0.1875" stop-color="#02EFA7"/>
<stop offset="0.191406" stop-color="#02EEA8"/>
<stop offset="0.195312" stop-color="#02EDA8"/>
<stop offset="0.199219" stop-color="#02ECA9"/>
<stop offset="0.203125" stop-color="#02EBA9"/>
<stop offset="0.207031" stop-color="#02EAAA"/>
<stop offset="0.210937" stop-color="#02E9AB"/>
<stop offset="0.214844" stop-color="#03E8AB"/>
<stop offset="0.21875" stop-color="#03E7AC"/>
<stop offset="0.222656" stop-color="#03E6AD"/>
<stop offset="0.226562" stop-color="#03E5AD"/>
<stop offset="0.230469" stop-color="#03E4AE"/>
<stop offset="0.234375" stop-color="#03E3AE"/>
<stop offset="0.238281" stop-color="#03E2AF"/>
<stop offset="0.242187" stop-color="#03E1B0"/>
<stop offset="0.246094" stop-color="#03E0B0"/>
<stop offset="0.25" stop-color="#03DFB1"/>
<stop offset="0.253906" stop-color="#04DEB2"/>
<stop offset="0.257812" stop-color="#04DDB2"/>
<stop offset="0.261719" stop-color="#04DCB3"/>
<stop offset="0.265625" stop-color="#04DBB3"/>
<stop offset="0.269531" stop-color="#04DAB4"/>
<stop offset="0.273438" stop-color="#04D9B5"/>
<stop offset="0.277344" stop-color="#04D8B5"/>
<stop offset="0.28125" stop-color="#04D7B6"/>
<stop offset="0.285156" stop-color="#04D6B6"/>
<stop offset="0.289062" stop-color="#05D5B7"/>
<stop offset="0.292969" stop-color="#05D4B8"/>
<stop offset="0.296875" stop-color="#05D3B8"/>
<stop offset="0.300781" stop-color="#05D1B9"/>
<stop offset="0.304688" stop-color="#05D0BA"/>
<stop offset="0.308594" stop-color="#05CFBA"/>
<stop offset="0.3125" stop-color="#05CEBB"/>
<stop offset="0.316406" stop-color="#05CDBB"/>
<stop offset="0.320312" stop-color="#05CCBC"/>
<stop offset="0.324219" stop-color="#06CBBD"/>
<stop offset="0.328125" stop-color="#06CABD"/>
<stop offset="0.332031" stop-color="#06C9BE"/>
<stop offset="0.335938" stop-color="#06C8BF"/>
<stop offset="0.339844" stop-color="#06C7BF"/>
<stop offset="0.34375" stop-color="#06C6C0"/>
<stop offset="0.347656" stop-color="#06C5C0"/>
<stop offset="0.351562" stop-color="#06C4C1"/>
<stop offset="0.355469" stop-color="#06C3C2"/>
<stop offset="0.359375" stop-color="#07C2C2"/>
<stop offset="0.363281" stop-color="#07C1C3"/>
<stop offset="0.367188" stop-color="#07C0C4"/>
<stop offset="0.371094" stop-color="#07BFC4"/>
<stop offset="0.375" stop-color="#07BEC5"/>
<stop offset="0.378906" stop-color="#07BDC5"/>
<stop offset="0.382812" stop-color="#07BCC6"/>
<stop offset="0.386719" stop-color="#07BBC7"/>
<stop offset="0.390625" stop-color="#07BAC7"/>
<stop offset="0.394531" stop-color="#08B9C8"/>
<stop offset="0.398438" stop-color="#08B8C8"/>
<stop offset="0.402344" stop-color="#08B7C9"/>
<stop offset="0.40625" stop-color="#08B6CA"/>
<stop offset="0.410156" stop-color="#08B5CA"/>
<stop offset="0.414062" stop-color="#08B4CB"/>
<stop offset="0.417969" stop-color="#08B3CC"/>
<stop offset="0.421875" stop-color="#08B2CC"/>
<stop offset="0.425781" stop-color="#08B1CD"/>
<stop offset="0.429688" stop-color="#09B0CD"/>
<stop offset="0.433594" stop-color="#09AFCE"/>
<stop offset="0.4375" stop-color="#09AECF"/>
<stop offset="0.441406" stop-color="#09ADCF"/>
<stop offset="0.445312" stop-color="#09ACD0"/>
<stop offset="0.449219" stop-color="#09ABD1"/>
<stop offset="0.453125" stop-color="#09AAD1"/>
<stop offset="0.457031" stop-color="#09A9D2"/>
<stop offset="0.460937" stop-color="#09A8D2"/>
<stop offset="0.464844" stop-color="#0AA7D3"/>
<stop offset="0.46875" stop-color="#0AA6D4"/>
<stop offset="0.472656" stop-color="#0AA5D4"/>
<stop offset="0.476562" stop-color="#0AA4D5"/>
<stop offset="0.480469" stop-color="#0AA3D5"/>
<stop offset="0.484375" stop-color="#0AA2D6"/>
<stop offset="0.488281" stop-color="#0AA1D7"/>
<stop offset="0.492187" stop-color="#0AA0D7"/>
<stop offset="0.496094" stop-color="#0A9FD8"/>
<stop offset="0.5" stop-color="#0A9ED9"/>
<stop offset="0.503906" stop-color="#0B9DD9"/>
<stop offset="0.507812" stop-color="#0B9CDA"/>
<stop offset="0.511719" stop-color="#0B9BDA"/>
<stop offset="0.515625" stop-color="#0B9ADB"/>
<stop offset="0.519531" stop-color="#0B99DC"/>
<stop offset="0.523437" stop-color="#0B98DC"/>
<stop offset="0.527344" stop-color="#0B97DD"/>
<stop offset="0.53125" stop-color="#0B96DE"/>
<stop offset="0.535156" stop-color="#0B95DE"/>
<stop offset="0.539062" stop-color="#0C94DF"/>
<stop offset="0.542969" stop-color="#0C93DF"/>
<stop offset="0.546875" stop-color="#0C92E0"/>
<stop offset="0.550781" stop-color="#0C91E1"/>
<stop offset="0.554687" stop-color="#0C90E1"/>
<stop offset="0.558594" stop-color="#0C8FE2"/>
<stop offset="0.5625" stop-color="#0C8EE2"/>
<stop offset="0.566406" stop-color="#0C8DE3"/>
<stop offset="0.570312" stop-color="#0C8CE4"/>
<stop offset="0.574219" stop-color="#0D8BE4"/>
<stop offset="0.578125" stop-color="#0D8AE5"/>
<stop offset="0.582031" stop-color="#0D89E6"/>
<stop offset="0.585937" stop-color="#0D88E6"/>
<stop offset="0.589844" stop-color="#0D87E7"/>
<stop offset="0.59375" stop-color="#0D86E7"/>
<stop offset="0.597656" stop-color="#0D85E8"/>
<stop offset="0.601562" stop-color="#0D84E9"/>
<stop offset="0.605469" stop-color="#0D83E9"/>
<stop offset="0.609375" stop-color="#0E82EA"/>
<stop offset="0.613281" stop-color="#0E81EB"/>
<stop offset="0.617187" stop-color="#0E80EB"/>
<stop offset="0.621094" stop-color="#0E7FEC"/>
<stop offset="0.625" stop-color="#0E7EEC"/>
<stop offset="0.628906" stop-color="#0E7DED"/>
<stop offset="0.632812" stop-color="#0E7CEE"/>
<stop offset="0.636719" stop-color="#0E7BEE"/>
<stop offset="0.640625" stop-color="#0E7AEF"/>
<stop offset="0.644531" stop-color="#0F79F0"/>
<stop offset="0.648437" stop-color="#0F77F0"/>
<stop offset="0.652344" stop-color="#0F76F1"/>
<stop offset="0.65625" stop-color="#0F75F1"/>
<stop offset="0.660156" stop-color="#0F74F2"/>
<stop offset="0.664062" stop-color="#0F73F3"/>
<stop offset="0.667969" stop-color="#0F72F3"/>
<stop offset="0.671875" stop-color="#0F71F4"/>
<stop offset="0.675781" stop-color="#0F70F4"/>
<stop offset="0.679687" stop-color="#106FF5"/>
<stop offset="0.683594" stop-color="#106EF6"/>
<stop offset="0.6875" stop-color="#106DF6"/>
<stop offset="0.691406" stop-color="#106CF7"/>
<stop offset="0.695312" stop-color="#106BF8"/>
<stop offset="0.699219" stop-color="#106AF8"/>
<stop offset="0.703125" stop-color="#1069F9"/>
<stop offset="0.707031" stop-color="#1068F9"/>
<stop offset="0.710937" stop-color="#1067FA"/>
<stop offset="0.714844" stop-color="#1066FB"/>
<stop offset="0.71875" stop-color="#1165FB"/>
<stop offset="0.722656" stop-color="#1164FC"/>
<stop offset="0.726562" stop-color="#1163FD"/>
<stop offset="0.730469" stop-color="#1162FD"/>
<stop offset="0.734375" stop-color="#1161FE"/>
<stop offset="0.75" stop-color="#1161FE"/>
<stop offset="1" stop-color="#1161FE"/>
</linearGradient>
</defs>
</svg>
