<svg width="694" height="138" viewBox="0 0 694 138" fill="none" xmlns="http://www.w3.org/2000/svg">
<path fill-rule="evenodd" clip-rule="evenodd" d="M507.032 13.3828H494.793V87.4696H507.032V57.7536C507.032 49.6122 511.883 44.9308 519.479 44.9308C526.653 44.9308 530.029 49.6122 530.029 56.5323V87.2661H542.266V55.3112C542.266 43.3026 535.514 35.1612 522.434 35.1612C514.627 35.1612 509.351 38.4176 507.032 41.8777V13.3828ZM247.088 78.1071C237.171 78.1071 232.107 73.0186 231.474 65.4879H219.237C219.659 76.8858 227.044 88.8945 246.455 88.8945C263.756 88.8945 275.361 80.5495 275.361 67.9303C275.361 51.851 261.857 49.0015 250.464 46.3556C242.025 44.5237 234.429 42.8955 234.429 36.3823C234.429 30.0727 239.703 26.6127 248.143 26.6127C257.427 26.6127 262.28 32.1081 262.28 39.0282H274.517C274.095 26.002 265.233 15.8252 248.143 15.8252C231.897 15.8252 222.19 25.3914 222.19 36.5858C222.19 52.2581 235.061 55.1076 246.244 57.3465C255.105 59.1782 262.912 60.8066 262.912 68.3374C262.701 74.647 257.004 78.1071 247.088 78.1071ZM318.614 65.6914C318.614 74.0363 313.973 78.5141 306.377 78.5141C298.992 78.5141 296.039 73.8328 296.039 66.9127V36.1787H283.8V68.5409C283.8 80.5495 290.552 88.6909 303.422 88.6909C312.074 88.6909 317.349 85.0272 319.67 80.9566V87.6732H330.852V36.1787H318.614V65.6914ZM371.152 88.6909C362.923 88.6909 357.226 85.2308 354.273 80.7531V108.027H342.034V36.1787H353.217V43.5061C356.593 38.2142 362.923 34.9576 371.152 34.9576C386.975 34.9576 395.838 47.1696 395.838 61.8242C395.838 76.4788 386.975 88.6909 371.152 88.6909ZM368.831 45.1343C359.547 45.1343 353.85 52.2581 353.85 61.8242C353.85 70.9833 359.547 78.3107 368.831 78.3107C378.115 78.3107 383.812 71.1869 383.812 61.8242C383.812 52.4617 377.904 45.1343 368.831 45.1343ZM487.62 35.7716C488.041 35.7716 489.308 35.7716 489.308 35.7716V46.7627C489.308 46.7627 487.831 46.5591 486.564 46.5591C477.914 46.5591 472.85 50.8333 472.85 60.8066V87.4696H460.613V36.1787H471.795V43.3025C473.905 40.046 478.337 35.7716 487.62 35.7716ZM452.595 65.2843C452.595 65.2843 452.595 63.4526 452.595 61.6206C452.595 46.5591 442.256 34.9576 426.432 34.9576C410.607 34.9576 400.058 46.7627 400.058 61.6206C400.058 76.8858 410.396 88.4874 426.642 88.4874C439.091 88.4874 448.375 81.3636 451.54 71.1869H439.302C437.403 75.6646 432.55 78.5141 426.854 78.5141C418.415 78.5141 412.928 73.2222 412.084 65.0808H452.595V65.2843ZM426.642 44.5237C434.45 44.5237 439.724 49.4086 440.568 56.5323H412.507C413.772 49.6122 418.836 44.5237 426.642 44.5237ZM602.188 61.6206C602.188 63.4526 602.188 65.2843 602.188 65.2843H561.678C562.521 73.4257 568.008 78.7176 576.448 78.7176C582.145 78.7176 586.786 75.8681 588.897 71.3904H601.134C597.968 81.5671 588.474 88.6909 576.237 88.6909C560.202 88.6909 549.651 77.0894 549.651 61.8242C549.651 46.9661 560.202 35.1612 576.025 35.1612C591.85 34.9576 602.188 46.5591 602.188 61.6206ZM589.951 56.5323C588.897 49.4086 583.833 44.5237 576.025 44.5237C568.219 44.5237 562.944 49.4086 561.89 56.5323H589.951ZM638.479 35.7716C638.479 35.7716 637.214 35.7716 636.791 35.7716C627.507 35.7716 623.077 40.046 621.178 43.3025V36.1787H609.996V87.4696H622.233V60.8066C622.233 50.8333 627.297 46.5591 635.947 46.5591C637.214 46.5591 638.691 46.7627 638.691 46.7627V35.7716H638.479ZM693.337 61.8242C693.337 76.2752 682.788 88.4874 665.698 88.4874C648.819 88.4874 638.268 76.0717 638.268 61.8242C638.268 47.3732 648.819 34.9576 665.698 34.9576C682.788 34.9576 693.337 47.3732 693.337 61.8242ZM665.698 45.3379C656.836 45.3379 650.295 51.851 650.295 61.8242C650.295 71.7975 656.836 78.3107 665.698 78.3107C674.559 78.3107 681.1 71.7975 681.1 61.8242C681.311 51.851 674.77 45.3379 665.698 45.3379Z" fill="url(#paint0_linear_155_1791)"/>
<mask id="mask0_155_1791" style="mask-type:luminance" maskUnits="userSpaceOnUse" x="0" y="0" width="189" height="138">
<path d="M0 0H188.229V137.344H0V0Z" fill="white"/>
</mask>
<g mask="url(#mask0_155_1791)">
<mask id="mask1_155_1791" style="mask-type:luminance" maskUnits="userSpaceOnUse" x="0" y="0" width="188" height="136">
<path fill-rule="evenodd" clip-rule="evenodd" d="M3.35828 54.8326C-1.12941 50.6407 -1.07025 43.5331 3.50195 39.4257L44.4236 2.70445C46.359 0.96346 48.869 0 51.4805 0H136.501C139.105 0 141.623 0.96346 143.558 2.70445L184.497 39.4511C189.061 43.55 189.137 50.6407 184.666 54.8326L101.47 132.797C97.4223 136.591 91.1006 136.6 87.044 132.822L3.35828 54.8326ZM50.2719 17.1479C52.2073 15.4069 54.7343 14.435 57.3458 14.435H116.801C119.176 14.435 120.418 17.2408 118.821 18.9818L106.076 32.9097C104.623 34.4986 104.716 36.9495 106.271 38.4285L114.359 46.3981C115.99 48.0124 115.753 50.6999 113.86 51.993L93.991 65.5913L123.512 60.9852C126.58 60.512 129.69 61.5092 131.895 63.6728L139.519 71.1692C141.141 72.7411 141.124 75.3442 139.476 76.8908L101.2 112.742C97.1518 116.536 90.8217 116.545 86.7651 112.75L25.0699 55.0862C20.5907 50.9027 20.6583 43.812 25.2136 39.7046L50.2719 17.1479Z" fill="white"/>
</mask>
<g mask="url(#mask1_155_1791)">
<path d="M-1.13232 0V136.6H189.134V0H-1.13232Z" fill="url(#paint1_linear_155_1791)"/>
</g>
</g>
<defs>
<linearGradient id="paint0_linear_155_1791" x1="240.566" y1="13.3828" x2="677.6" y2="120.027" gradientUnits="userSpaceOnUse">
<stop stop-color="#00FF9D"/>
<stop offset="1" stop-color="#1161FE"/>
</linearGradient>
<linearGradient id="paint1_linear_155_1791" x1="172.368" y1="-9.93485" x2="62.99" y2="174.61" gradientUnits="userSpaceOnUse">
<stop stop-color="#00FF9D"/>
<stop offset="0.125" stop-color="#00FF9D"/>
<stop offset="0.128906" stop-color="#00FE9E"/>
<stop offset="0.132812" stop-color="#00FD9E"/>
<stop offset="0.136719" stop-color="#00FC9F"/>
<stop offset="0.140625" stop-color="#00FBA0"/>
<stop offset="0.144531" stop-color="#01FAA0"/>
<stop offset="0.148438" stop-color="#01F9A1"/>
<stop offset="0.152344" stop-color="#01F8A1"/>
<stop offset="0.15625" stop-color="#01F7A2"/>
<stop offset="0.160156" stop-color="#01F6A3"/>
<stop offset="0.164062" stop-color="#01F5A3"/>
<stop offset="0.167969" stop-color="#01F4A4"/>
<stop offset="0.171875" stop-color="#01F3A5"/>
<stop offset="0.175781" stop-color="#01F2A5"/>
<stop offset="0.179687" stop-color="#02F1A6"/>
<stop offset="0.183594" stop-color="#02F0A6"/>
<stop offset="0.1875" stop-color="#02EFA7"/>
<stop offset="0.191406" stop-color="#02EEA8"/>
<stop offset="0.195312" stop-color="#02EDA8"/>
<stop offset="0.199219" stop-color="#02ECA9"/>
<stop offset="0.203125" stop-color="#02EBA9"/>
<stop offset="0.207031" stop-color="#02EAAA"/>
<stop offset="0.210937" stop-color="#02E9AB"/>
<stop offset="0.214844" stop-color="#03E8AB"/>
<stop offset="0.21875" stop-color="#03E7AC"/>
<stop offset="0.222656" stop-color="#03E6AD"/>
<stop offset="0.226562" stop-color="#03E5AD"/>
<stop offset="0.230469" stop-color="#03E4AE"/>
<stop offset="0.234375" stop-color="#03E3AE"/>
<stop offset="0.238281" stop-color="#03E2AF"/>
<stop offset="0.242187" stop-color="#03E1B0"/>
<stop offset="0.246094" stop-color="#03E0B0"/>
<stop offset="0.25" stop-color="#03DFB1"/>
<stop offset="0.253906" stop-color="#04DEB2"/>
<stop offset="0.257812" stop-color="#04DDB2"/>
<stop offset="0.261719" stop-color="#04DCB3"/>
<stop offset="0.265625" stop-color="#04DBB3"/>
<stop offset="0.269531" stop-color="#04DAB4"/>
<stop offset="0.273438" stop-color="#04D9B5"/>
<stop offset="0.277344" stop-color="#04D8B5"/>
<stop offset="0.28125" stop-color="#04D7B6"/>
<stop offset="0.285156" stop-color="#04D6B6"/>
<stop offset="0.289062" stop-color="#05D5B7"/>
<stop offset="0.292969" stop-color="#05D4B8"/>
<stop offset="0.296875" stop-color="#05D3B8"/>
<stop offset="0.300781" stop-color="#05D1B9"/>
<stop offset="0.304688" stop-color="#05D0BA"/>
<stop offset="0.308594" stop-color="#05CFBA"/>
<stop offset="0.3125" stop-color="#05CEBB"/>
<stop offset="0.316406" stop-color="#05CDBB"/>
<stop offset="0.320312" stop-color="#05CCBC"/>
<stop offset="0.324219" stop-color="#06CBBD"/>
<stop offset="0.328125" stop-color="#06CABD"/>
<stop offset="0.332031" stop-color="#06C9BE"/>
<stop offset="0.335938" stop-color="#06C8BF"/>
<stop offset="0.339844" stop-color="#06C7BF"/>
<stop offset="0.34375" stop-color="#06C6C0"/>
<stop offset="0.347656" stop-color="#06C5C0"/>
<stop offset="0.351562" stop-color="#06C4C1"/>
<stop offset="0.355469" stop-color="#06C3C2"/>
<stop offset="0.359375" stop-color="#07C2C2"/>
<stop offset="0.363281" stop-color="#07C1C3"/>
<stop offset="0.367188" stop-color="#07C0C4"/>
<stop offset="0.371094" stop-color="#07BFC4"/>
<stop offset="0.375" stop-color="#07BEC5"/>
<stop offset="0.378906" stop-color="#07BDC5"/>
<stop offset="0.382812" stop-color="#07BCC6"/>
<stop offset="0.386719" stop-color="#07BBC7"/>
<stop offset="0.390625" stop-color="#07BAC7"/>
<stop offset="0.394531" stop-color="#08B9C8"/>
<stop offset="0.398438" stop-color="#08B8C8"/>
<stop offset="0.402344" stop-color="#08B7C9"/>
<stop offset="0.40625" stop-color="#08B6CA"/>
<stop offset="0.410156" stop-color="#08B5CA"/>
<stop offset="0.414062" stop-color="#08B4CB"/>
<stop offset="0.417969" stop-color="#08B3CC"/>
<stop offset="0.421875" stop-color="#08B2CC"/>
<stop offset="0.425781" stop-color="#08B1CD"/>
<stop offset="0.429688" stop-color="#09B0CD"/>
<stop offset="0.433594" stop-color="#09AFCE"/>
<stop offset="0.4375" stop-color="#09AECF"/>
<stop offset="0.441406" stop-color="#09ADCF"/>
<stop offset="0.445312" stop-color="#09ACD0"/>
<stop offset="0.449219" stop-color="#09ABD1"/>
<stop offset="0.453125" stop-color="#09AAD1"/>
<stop offset="0.457031" stop-color="#09A9D2"/>
<stop offset="0.460937" stop-color="#09A8D2"/>
<stop offset="0.464844" stop-color="#0AA7D3"/>
<stop offset="0.46875" stop-color="#0AA6D4"/>
<stop offset="0.472656" stop-color="#0AA5D4"/>
<stop offset="0.476562" stop-color="#0AA4D5"/>
<stop offset="0.480469" stop-color="#0AA3D5"/>
<stop offset="0.484375" stop-color="#0AA2D6"/>
<stop offset="0.488281" stop-color="#0AA1D7"/>
<stop offset="0.492187" stop-color="#0AA0D7"/>
<stop offset="0.496094" stop-color="#0A9FD8"/>
<stop offset="0.5" stop-color="#0A9ED9"/>
<stop offset="0.503906" stop-color="#0B9DD9"/>
<stop offset="0.507812" stop-color="#0B9CDA"/>
<stop offset="0.511719" stop-color="#0B9BDA"/>
<stop offset="0.515625" stop-color="#0B9ADB"/>
<stop offset="0.519531" stop-color="#0B99DC"/>
<stop offset="0.523437" stop-color="#0B98DC"/>
<stop offset="0.527344" stop-color="#0B97DD"/>
<stop offset="0.53125" stop-color="#0B96DE"/>
<stop offset="0.535156" stop-color="#0B95DE"/>
<stop offset="0.539062" stop-color="#0C94DF"/>
<stop offset="0.542969" stop-color="#0C93DF"/>
<stop offset="0.546875" stop-color="#0C92E0"/>
<stop offset="0.550781" stop-color="#0C91E1"/>
<stop offset="0.554687" stop-color="#0C90E1"/>
<stop offset="0.558594" stop-color="#0C8FE2"/>
<stop offset="0.5625" stop-color="#0C8EE2"/>
<stop offset="0.566406" stop-color="#0C8DE3"/>
<stop offset="0.570312" stop-color="#0C8CE4"/>
<stop offset="0.574219" stop-color="#0D8BE4"/>
<stop offset="0.578125" stop-color="#0D8AE5"/>
<stop offset="0.582031" stop-color="#0D89E6"/>
<stop offset="0.585937" stop-color="#0D88E6"/>
<stop offset="0.589844" stop-color="#0D87E7"/>
<stop offset="0.59375" stop-color="#0D86E7"/>
<stop offset="0.597656" stop-color="#0D85E8"/>
<stop offset="0.601562" stop-color="#0D84E9"/>
<stop offset="0.605469" stop-color="#0D83E9"/>
<stop offset="0.609375" stop-color="#0E82EA"/>
<stop offset="0.613281" stop-color="#0E81EB"/>
<stop offset="0.617187" stop-color="#0E80EB"/>
<stop offset="0.621094" stop-color="#0E7FEC"/>
<stop offset="0.625" stop-color="#0E7EEC"/>
<stop offset="0.628906" stop-color="#0E7DED"/>
<stop offset="0.632812" stop-color="#0E7CEE"/>
<stop offset="0.636719" stop-color="#0E7BEE"/>
<stop offset="0.640625" stop-color="#0E7AEF"/>
<stop offset="0.644531" stop-color="#0F79F0"/>
<stop offset="0.648437" stop-color="#0F77F0"/>
<stop offset="0.652344" stop-color="#0F76F1"/>
<stop offset="0.65625" stop-color="#0F75F1"/>
<stop offset="0.660156" stop-color="#0F74F2"/>
<stop offset="0.664062" stop-color="#0F73F3"/>
<stop offset="0.667969" stop-color="#0F72F3"/>
<stop offset="0.671875" stop-color="#0F71F4"/>
<stop offset="0.675781" stop-color="#0F70F4"/>
<stop offset="0.679687" stop-color="#106FF5"/>
<stop offset="0.683594" stop-color="#106EF6"/>
<stop offset="0.6875" stop-color="#106DF6"/>
<stop offset="0.691406" stop-color="#106CF7"/>
<stop offset="0.695312" stop-color="#106BF8"/>
<stop offset="0.699219" stop-color="#106AF8"/>
<stop offset="0.703125" stop-color="#1069F9"/>
<stop offset="0.707031" stop-color="#1068F9"/>
<stop offset="0.710937" stop-color="#1067FA"/>
<stop offset="0.714844" stop-color="#1066FB"/>
<stop offset="0.71875" stop-color="#1165FB"/>
<stop offset="0.722656" stop-color="#1164FC"/>
<stop offset="0.726562" stop-color="#1163FD"/>
<stop offset="0.730469" stop-color="#1162FD"/>
<stop offset="0.734375" stop-color="#1161FE"/>
<stop offset="0.75" stop-color="#1161FE"/>
<stop offset="1" stop-color="#1161FE"/>
</linearGradient>
</defs>
</svg>
